<svg xmlns="http://www.w3.org/2000/svg">
  <symbol id="icon-facebook" viewBox="0 0 14 24">
    <path d="M12.8069 13.5l.6665-4.34344H9.30579V6.33797c0-1.18828.58219-2.34656 2.44871-2.34656h1.8947V.293438S11.9299 0 10.2859 0C6.85376 0 4.61032 2.08031 4.61032 5.84625v3.31031H.795166V13.5H4.61032V24h4.69547V13.5h3.50111z"/>
  </symbol>
  <symbol id="icon-instagram" viewBox="0 0 25 24">
    <path d="M12.6545 5.8467C9.24852 5.8467 6.50123 8.594 6.50123 12c0 3.406 2.74729 6.1533 6.15327 6.1533 3.406 0 6.1533-2.7473 6.1533-6.1533 0-3.406-2.7473-6.1533-6.1533-6.1533zm0 10.1537c-2.201 0-4.00042-1.794-4.00042-4.0004s1.79402-4.00045 4.00042-4.00045c2.2064 0 4.0005 1.79405 4.0005 4.00045s-1.7994 4.0004-4.0005 4.0004zM20.4948 5.595c0 .79795-.6427 1.43524-1.4353 1.43524-.7979 0-1.4352-.64265-1.4352-1.43524s.6426-1.43523 1.4352-1.43523c.7926 0 1.4353.64264 1.4353 1.43523zm4.0754 1.45666c-.0911-1.92257-.5302-3.62558-1.9387-5.02868C21.2284.619882 19.5254.180743 17.6029.0843468c-1.9815-.1124624-7.92059-.1124624-9.90207 0C5.78361.175388 4.08061.614526 2.67215 2.01763 1.2637 3.42073.829913 5.12373.733517 7.0463c-.112463 1.98148-.112463 7.9206 0 9.902.091041 1.9226.530183 3.6256 1.938633 5.0287 1.40846 1.4031 3.10611 1.8423 5.02868 1.9387 1.98148.1124 7.92057.1124 9.90207 0 1.9225-.0911 3.6255-.5302 5.0286-1.9387 1.4031-1.4031 1.8423-3.1061 1.9387-5.0287.1124-1.9814.1124-7.91516 0-9.89664zM22.0103 19.0744c-.4177 1.0497-1.2264 1.8583-2.2814 2.2814-1.5798.6266-5.3285.482-7.0744.482-1.7458 0-5.49992.1392-7.07439-.482-1.04965-.4177-1.85831-1.2264-2.28138-2.2814-.62658-1.5798-.48198-5.3286-.48198-7.0744s-.13924-5.49994.48198-7.07442c.41772-1.04965 1.22637-1.8583 2.28138-2.28138 1.57983-.62657 5.32859-.48198 7.07439-.48198 1.7459 0 5.5-.13924 7.0744.48198 1.0497.41772 1.8583 1.22638 2.2814 2.28138.6266 1.57983.482 5.32862.482 7.07442s.1446 5.4999-.482 7.0744z"/>
  </symbol>  
  <symbol id="icon-twitter" viewBox="0 0 31 24">
    <path d="M27.167 5.98123c.0188.26249.0188.52503.0188.78752C27.1858 14.775 21.0921 24 9.95455 24c-3.43127 0-6.61875-.9938-9.300009-2.7187.487519.0562.956219.075 1.462499.075 2.8312 0 5.43749-.9563 7.51875-2.5875-2.6625-.0563-4.89376-1.8-5.66253-4.2001.37504.0563.75001.0938 1.1438.0938.54373 0 1.08752-.0751 1.59374-.2062-2.77499-.5626-4.85631-3.0001-4.85631-5.94381v-.07497c.80622.45 1.7438.73125 2.73748.7687C2.96071 8.1187 1.89201 6.26247 1.89201 4.16246c0-1.12498.29994-2.15623.82497-3.05624 2.98127 3.675 7.46252 6.07496 12.48752 6.3375-.0938-.45-.15-.9187-.15-1.38746C15.0545 2.71872 17.7545 0 21.1107 0c1.7438 0 3.3188.731248 4.425 1.9125 1.3687-.26249 2.6812-.76876 3.8438-1.462497-.4501 1.406277-1.4063 2.587537-2.6625 3.337477 1.2187-.13118 2.4-.46876 3.4875-.93746-.8249 1.19995-1.8562 2.26866-3.0375 3.13121z"/>
  </symbol>
  <symbol id="icon-linkedin" viewBox="0 0 25 24">
    <path d="M5.57685 24H.601027V7.97643H5.57685V24zM3.08626 5.79066c-1.59111 0-2.88167-1.31788-2.88167-2.90899 0-.76427.303604-1.49723.84402-2.037648C1.58903.303604 2.32199 0 3.08626 0c.76427 0 1.49723.303604 2.03765.844022.54042.540418.84402 1.273378.84402 2.037648 0 1.59111-1.2911 2.90899-2.88167 2.90899zM24.1998 24h-4.9651v-7.8002c0-1.8589-.0375-4.2429-2.5871-4.2429-2.587 0-2.9834 2.0197-2.9834 4.109V24H8.69371V7.97643H13.466v2.18577h.0696c.6643-1.25897 2.287-2.58757 4.708-2.58757 5.0358 0 5.9615 3.31617 5.9615 7.62337V24h-.0053z"/>
  </symbol>
  <symbol id="icon-email" viewBox="0 0 33 24">
    <path d="M31.5959 7.925c.2437-.19375.6062-.0125.6062.29375V21c0 1.6562-1.3437 3-3 3H3.20215C1.5459 24 .202148 22.6562.202148 21V8.225c0-.3125.35625-.4875.60625-.29375C2.2084 9.01875 4.06465 10.4 10.4396 15.0312c1.3188.9625 3.5438 2.9876 5.7625 2.9751 2.2313.0187 4.5-2.05 5.7688-2.9751 6.375-4.6312 8.225-6.0187 9.625-7.1062zM16.2021 16c1.45.025 3.5375-1.825 4.5875-2.5875 8.2938-6.01875 8.925-6.54375 10.8375-8.04375.3625-.28125.575-.71875.575-1.18125V3c0-1.65625-1.3437-3-3-3H3.20215C1.5459 0 .202148 1.34375.202148 3v1.1875c0 .4625.2125.89375.575 1.18125C2.68965 6.8625 3.3209 7.39375 11.6146 13.4125c1.05.7625 3.1375 2.6125 4.5875 2.5875z"/>
  </symbol>
  <symbol id="icon-copy" viewBox="0 0 25 24">
    <path d="M15.5121 8.69021c2.8006 2.80359 2.7622 7.29829.0169 10.05889-.0052.0056-.0113.0117-.0169.0173l-3.15 3.15c-2.77829 2.7783-7.29839 2.7779-10.07624 0-2.77828-2.7778-2.77828-7.2984 0-10.0762l1.73934-1.7393c.46124-.46128 1.25559-.15472 1.2794.4971.03037.8307.17934 1.6653.45422 2.4713.09309.2729.02658.5748-.17733.7787l-.61345.6134c-1.31372 1.3138-1.35492 3.4529-.05414 4.7794 1.31362 1.3397 3.47277 1.3476 4.79647.0239l3.15003-3.1495c1.3214-1.3215 1.3159-3.4574 0-4.7733-.1735-.1731-.3483-.3077-.4848-.4016-.0965-.0664-.1763-.1543-.2328-.2569-.0565-.1026-.0883-.217-.0928-.3341-.0186-.49528.1569-1.0057.5483-1.39711l.9869-.98695c.2588-.25879.6648-.29057.9649-.08114.3437.23998.6656.50972.962.80611zm6.6063-6.60664c-2.7779-2.777905-7.298-2.77828-10.0762 0L8.89217 5.23356c-.00563.00563-.01172.01172-.01688.01734-2.74527 2.76056-2.78376 7.2553.01688 10.0589.29638.2964.61826.5661.96192.8061.30011.2094.70611.1776.96491-.0812l.9869-.9869c.3914-.3914.5669-.9019.5483-1.3972-.0045-.117-.0363-.2314-.0928-.334-.0565-.1026-.1363-.1906-.2328-.2569-.1365-.094-.3113-.2285-.4848-.4017-1.3159-1.3159-1.3214-3.45179 0-4.77324l3.15-3.14953c1.3237-1.3237 3.4828-1.31573 4.7965.02391 1.3008 1.32656 1.2596 3.46565-.0541 4.77937l-.6135.61349c-.2039.2039-.2704.5057-.1773.7786.2749.806.4238 1.6406.4542 2.4713.0239.6519.8182.9584 1.2794.4972l1.7393-1.7394c2.7784-2.77771 2.7784-7.29833.0001-10.07613z"/>
  </symbol>
  <symbol id="icon-at" viewBox="0 0 64 64">
    <path d="M32 0C14.315 0 0 14.3121 0 32c0 17.685 14.3121 32 32 32 6.2134 0 12.3022-1.8245 17.472-5.1901 1.549-1.0084 1.8871-3.1339.7164-4.5641l-1.3132-1.6043c-.9898-1.2091-2.7327-1.5054-4.0481-.6618-3.8052 2.4406-8.2705 3.7622-12.8271 3.7622C18.9086 55.7419 8.25806 45.0914 8.25806 32 8.25806 18.9086 18.9086 8.25806 32 8.25806c12.9212 0 23.7419 7.43474 23.7419 20.64514 0 5.0047-2.7216 10.2893-7.5058 10.7991-2.2386-.0586-2.1819-1.6589-1.7388-3.874l3.0236-15.6271c.3698-1.9109-1.0941-3.6851-3.0403-3.6851h-5.804c-.4285 0-.842.1578-1.1617.4432s-.5231.6785-.5714 1.1043l-.0013.0119c-1.8964-2.3098-5.2191-2.8097-7.7382-2.8097-9.6232 0-17.7846 8.0302-17.7846 19.5432 0 8.4262 4.7464 13.6607 12.387 13.6607 3.4819 0 7.4025-2.0177 9.6763-4.9462 1.2287 4.4005 5.2404 4.4004 9.1239 4.4004C58.6592 47.9239 64 38.6836 64 28.9032 64 11.3101 49.8094 0 32 0zm-2.7974 39.2813c-2.8709 0-4.6542-2.0159-4.6542-5.2608 0-5.8055 3.9715-9.3844 7.5651-9.3844 2.8764 0 4.5937 1.9666 4.5937 5.2607 0 5.8143-4.3709 9.3845-7.5046 9.3845z"/>
  </symbol>
  <symbol id="icon-arrow" viewBox="0 0 10 13">
    <path d="M9.33373 6.96634L2.65809 12.3068c-.32196.2576-.84393.2576-1.16586 0l-.778601-.6229c-.321409-.2571-.322027-.6738-.001374-.9315L6.00281 6.49999.712255 2.24765c-.320653-.25774-.320035-.67447.001374-.93159L1.49223.693175c.32196-.257567.84394-.257567 1.16586 0l6.6756 5.340485c.32196.25754.32196.67512.00004.93268z"/>
  </symbol>
  <symbol id="icon-home" viewBox="0 0 16 13">
    <path d="M7.51115 3.61312L2.57212 7.68098v4.39042c0 .1137.04515.2227.12554.3031.08038.0803.1894.1255.30308.1255l3.00194-.0078c.1133-.0005.22177-.0459.30169-.1263.07992-.0803.12478-.189.12478-.3023V9.49967c0-.11368.04516-.2227.12554-.30308.08038-.08039.1894-.12554.30308-.12554h1.71448c.11368 0 .2227.04515.30308.12554.08038.08038.12554.1894.12554.30308v2.56203c-.00018.0564.01078.1123.03224.1645.02146.0521.053.0995.09282.1395.03982.0399.08713.0716.13922.0932.05209.0217.10794.0328.16434.0328l3.00091.0083c.1136 0 .2227-.0452.303-.1255.0804-.0804.1256-.1894.1256-.3031V7.67803L7.92102 3.61312c-.05806-.0468-.13038-.07232-.20494-.07232-.07456 0-.14688.02552-.20493.07232zm7.80165 2.76486l-2.2395-1.84601V.821464c0-.085257-.0339-.167023-.0942-.227309C12.9188.533869 12.8371.5 12.7518.5h-1.5001c-.0853 0-.1671.033869-.2274.094155-.0602.060286-.0941.142052-.0941.227309V2.76659L8.5318.793336C8.30163.603935 8.01282.500379 7.71474.500379c-.29807 0-.58689.103556-.81705.292957L.116664 6.37798c-.0325512.0269-.0594825.05996-.0792547.09727-.0197722.03732-.03199778.07817-.03597821.12021-.00398042.04204.00036232.08446.01278011.12482.0124178.04037.0326672.07789.0595913.11043l.6831115.83045c.026851.03265.059878.05968.097189.07955.037312.01987.078176.03218.120253.03624.042074.00405.084544-.00023.124964-.01261.04042-.01237.078-.0326.11059-.05952l6.30124-5.19004c.05805-.04679.13037-.07231.20493-.07231.07456 0 .14688.02552.20494.07231l6.30148 5.19004c.0326.02693.0701.04718.1104.05959.0404.01242.0828.01676.1249.01278.042-.00398.0829-.0162.1202-.03597.0373-.01978.0703-.04671.0973-.07926l.6831-.83045c.0269-.03272.047-.07044.0593-.11098.0123-.04054.0164-.08311.0122-.12525-.0043-.04215-.0168-.08304-.0369-.12033-.0201-.0373-.0473-.07025-.0802-.09697z"/>
  </symbol>
  <symbol id="icon-newsletter" viewBox="0 0 64 64">
    <path d="M22 27.0004H42C43.105 27.0004 44 26.1054 44 25.0004V23.0004C44 21.8954 43.105 21.0004 42 21.0004H22C20.895 21.0004 20 21.8954 20 23.0004V25.0004C20 26.1054 20.895 27.0004 22 27.0004ZM20 37.0004C20 38.1054 20.895 39.0004 22 39.0004H42C43.105 39.0004 44 38.1054 44 37.0004V35.0004C44 33.8954 43.105 33.0004 42 33.0004H22C20.895 33.0004 20 33.8954 20 35.0004V37.0004ZM32 52.1416C29.9475 52.1416 27.895 51.5091 26.1425 50.2429L0 31.3579V58.0004C0 61.3141 2.68625 64.0004 6 64.0004H58C61.3138 64.0004 64 61.3141 64 58.0004V31.3579L37.8575 50.2429C36.105 51.5079 34.0525 52.1416 32 52.1416ZM61.7012 20.3691C60.595 19.5016 59.5462 18.6854 58 17.5179V12.0004C58 8.68664 55.3138 6.00039 52 6.00039H42.3063C41.9263 5.72539 41.5725 5.46789 41.1763 5.18039C39.075 3.64664 34.9 -0.0433643 32 0.000385671C29.1 -0.0433643 24.9262 3.64664 22.8237 5.18039C22.4275 5.46789 22.0738 5.72539 21.6938 6.00039H12C8.68625 6.00039 6 8.68664 6 12.0004V17.5179C4.45375 18.6841 3.405 19.5016 2.29875 20.3691C1.5827 20.9303 1.00364 21.647 0.605392 22.4649C0.207141 23.2828 0.000123226 24.1806 0 25.0904L0 26.4216L12 35.0904V12.0004H52V35.0904L64 26.4216V25.0904C64 23.2479 63.1525 21.5066 61.7012 20.3691V20.3691Z"/>
  </symbol>
</svg>