<svg viewBox="0 0 1162 305" xmlns="http://www.w3.org/2000/svg">
<path d="M239.5 74.04H212.44V67H274.7V74.04H247.64V144H239.5V74.04ZM321.364 144.66C313.737 144.66 306.807 142.973 300.574 139.6C294.414 136.153 289.574 131.46 286.054 125.52C282.607 119.58 280.884 112.907 280.884 105.5C280.884 98.0933 282.607 91.42 286.054 85.48C289.574 79.54 294.414 74.8833 300.574 71.51C306.807 68.0633 313.737 66.34 321.364 66.34C328.991 66.34 335.847 68.0267 341.934 71.4C348.094 74.7733 352.934 79.4667 356.454 85.48C359.974 91.42 361.734 98.0933 361.734 105.5C361.734 112.907 359.974 119.617 356.454 125.63C352.934 131.57 348.094 136.227 341.934 139.6C335.847 142.973 328.991 144.66 321.364 144.66ZM321.364 137.4C327.451 137.4 332.951 136.043 337.864 133.33C342.777 130.543 346.627 126.73 349.414 121.89C352.201 116.977 353.594 111.513 353.594 105.5C353.594 99.4867 352.201 94.06 349.414 89.22C346.627 84.3067 342.777 80.4933 337.864 77.78C332.951 74.9933 327.451 73.6 321.364 73.6C315.277 73.6 309.741 74.9933 304.754 77.78C299.841 80.4933 295.954 84.3067 293.094 89.22C290.307 94.06 288.914 99.4867 288.914 105.5C288.914 111.513 290.307 116.977 293.094 121.89C295.954 126.73 299.841 130.543 304.754 133.33C309.741 136.043 315.277 137.4 321.364 137.4ZM459.949 67V144H452.139V82.4L421.889 134.21H418.039L387.789 82.73V144H379.979V67H386.689L420.129 124.09L453.239 67H459.949ZM533.328 123.43H490.428L481.188 144H472.718L507.918 67H515.948L551.148 144H542.568L533.328 123.43ZM530.358 116.83L511.878 75.47L493.398 116.83H530.358ZM585.116 144.66C579.396 144.66 573.896 143.743 568.616 141.91C563.409 140.077 559.376 137.657 556.516 134.65L559.706 128.38C562.492 131.167 566.196 133.44 570.816 135.2C575.436 136.887 580.202 137.73 585.116 137.73C592.009 137.73 597.179 136.483 600.626 133.99C604.072 131.423 605.796 128.123 605.796 124.09C605.796 121.01 604.842 118.553 602.936 116.72C601.102 114.887 598.829 113.493 596.116 112.54C593.402 111.513 589.626 110.413 584.786 109.24C578.992 107.773 574.372 106.38 570.926 105.06C567.479 103.667 564.509 101.577 562.016 98.79C559.596 96.0033 558.386 92.2267 558.386 87.46C558.386 83.5733 559.412 80.0533 561.466 76.9C563.519 73.6733 566.672 71.1067 570.926 69.2C575.179 67.2933 580.459 66.34 586.766 66.34C591.166 66.34 595.456 66.9633 599.636 68.21C603.889 69.3833 607.556 71.0333 610.636 73.16L607.886 79.65C604.659 77.5233 601.212 75.9467 597.546 74.92C593.879 73.82 590.286 73.27 586.766 73.27C580.019 73.27 574.922 74.59 571.476 77.23C568.102 79.7967 566.416 83.1333 566.416 87.24C566.416 90.32 567.332 92.8133 569.166 94.72C571.072 96.5533 573.419 97.9833 576.206 99.01C579.066 99.9633 582.879 101.027 587.646 102.2C593.292 103.593 597.839 104.987 601.286 106.38C604.806 107.7 607.776 109.753 610.196 112.54C612.616 115.253 613.826 118.957 613.826 123.65C613.826 127.537 612.762 131.093 610.636 134.32C608.582 137.473 605.392 140.003 601.066 141.91C596.739 143.743 591.422 144.66 585.116 144.66ZM687.111 136.96V144H623.971V138.39L675.011 74.04H624.741V67H685.791V72.61L634.861 136.96H687.111ZM248.41 205.81L232.68 221.76V242H224.54V165H232.68V211.53L277.89 165H287.24L253.91 199.87L289.55 242H279.87L248.41 205.81ZM351.033 221.43H308.133L298.893 242H290.423L325.623 165H333.653L368.853 242H360.273L351.033 221.43ZM348.063 214.83L329.583 173.47L311.103 214.83H348.063ZM434.171 242L416.571 217.25C414.591 217.47 412.537 217.58 410.411 217.58H389.731V242H381.591V165H410.411C420.237 165 427.937 167.347 433.511 172.04C439.084 176.733 441.871 183.187 441.871 191.4C441.871 197.413 440.331 202.51 437.251 206.69C434.244 210.797 429.917 213.767 424.271 215.6L443.081 242H434.171ZM410.191 210.65C417.817 210.65 423.647 208.963 427.681 205.59C431.714 202.217 433.731 197.487 433.731 191.4C433.731 185.167 431.714 180.4 427.681 177.1C423.647 173.727 417.817 172.04 410.191 172.04H389.731V210.65H410.191ZM494.523 242.66C486.896 242.66 480.003 240.973 473.843 237.6C467.756 234.227 462.953 229.57 459.433 223.63C455.986 217.617 454.263 210.907 454.263 203.5C454.263 196.093 455.986 189.42 459.433 183.48C462.953 177.467 467.793 172.773 473.953 169.4C480.113 166.027 487.006 164.34 494.633 164.34C500.353 164.34 505.633 165.293 510.473 167.2C515.313 169.107 519.42 171.893 522.793 175.56L517.623 180.73C511.61 174.643 504.02 171.6 494.853 171.6C488.766 171.6 483.23 172.993 478.243 175.78C473.256 178.567 469.333 182.38 466.473 187.22C463.686 192.06 462.293 197.487 462.293 203.5C462.293 209.513 463.686 214.94 466.473 219.78C469.333 224.62 473.256 228.433 478.243 231.22C483.23 234.007 488.766 235.4 494.853 235.4C504.093 235.4 511.683 232.32 517.623 226.16L522.793 231.33C519.42 234.997 515.276 237.82 510.363 239.8C505.523 241.707 500.243 242.66 494.523 242.66ZM595.695 234.96V242H532.555V236.39L583.595 172.04H533.325V165H594.375V170.61L543.445 234.96H595.695ZM691.766 165V242H683.956V180.4L653.706 232.21H649.856L619.606 180.73V242H611.796V165H618.506L651.946 222.09L685.056 165H691.766ZM765.144 221.43H722.244L713.004 242H704.534L739.734 165H747.764L782.964 242H774.384L765.144 221.43ZM762.174 214.83L743.694 173.47L725.214 214.83H762.174ZM848.282 242L830.682 217.25C828.702 217.47 826.649 217.58 824.522 217.58H803.842V242H795.702V165H824.522C834.349 165 842.049 167.347 847.622 172.04C853.195 176.733 855.982 183.187 855.982 191.4C855.982 197.413 854.442 202.51 851.362 206.69C848.355 210.797 844.029 213.767 838.382 215.6L857.192 242H848.282ZM824.302 210.65C831.929 210.65 837.759 208.963 841.792 205.59C845.825 202.217 847.842 197.487 847.842 191.4C847.842 185.167 845.825 180.4 841.792 177.1C837.759 173.727 831.929 172.04 824.302 172.04H803.842V210.65H824.302ZM908.634 242.66C901.008 242.66 894.114 240.973 887.954 237.6C881.868 234.227 877.064 229.57 873.544 223.63C870.098 217.617 868.374 210.907 868.374 203.5C868.374 196.093 870.098 189.42 873.544 183.48C877.064 177.467 881.904 172.773 888.064 169.4C894.224 166.027 901.118 164.34 908.744 164.34C914.464 164.34 919.744 165.293 924.584 167.2C929.424 169.107 933.531 171.893 936.904 175.56L931.734 180.73C925.721 174.643 918.131 171.6 908.964 171.6C902.878 171.6 897.341 172.993 892.354 175.78C887.368 178.567 883.444 182.38 880.584 187.22C877.798 192.06 876.404 197.487 876.404 203.5C876.404 209.513 877.798 214.94 880.584 219.78C883.444 224.62 887.368 228.433 892.354 231.22C897.341 234.007 902.878 235.4 908.964 235.4C918.204 235.4 925.794 232.32 931.734 226.16L936.904 231.33C933.531 234.997 929.388 237.82 924.474 239.8C919.634 241.707 914.354 242.66 908.634 242.66ZM1009.81 234.96V242H946.667V236.39L997.707 172.04H947.437V165H1008.49V170.61L957.557 234.96H1009.81ZM1052.31 215.38V242H1044.28V215.38L1013.48 165H1022.17L1048.57 208.23L1074.97 165H1083.11L1052.31 215.38ZM1119.6 205.81L1103.87 221.76V242H1095.73V165H1103.87V211.53L1149.08 165H1158.43L1125.1 199.87L1160.74 242H1151.06L1119.6 205.81Z" fill="black"/>
<path d="M116.345 159.75L80.5947 196V242H62.0947V67H80.5947V172.75L183.345 67H204.595L128.845 146.25L209.845 242H187.845L116.345 159.75Z" fill="black"/>
<path d="M62.5 83H1V67H142.5V83H81V242H62.5V83Z" fill="black"/>
</svg>
